<?xml version="1.0" encoding="utf-8"?>
<!-- Generator: Adobe Illustrator 16.0.0, SVG Export Plug-In . SVG Version: 6.00 Build 0)  -->
<!DOCTYPE svg PUBLIC "-//W3C//DTD SVG 1.1//EN" "http://www.w3.org/Graphics/SVG/1.1/DTD/svg11.dtd">
<svg version="1.1" id="Layer_1" xmlns="http://www.w3.org/2000/svg" xmlns:xlink="http://www.w3.org/1999/xlink" x="0px" y="0px"
	 width="300px" height="150px" viewBox="0 0 300 150" enable-background="new 0 0 300 150" xml:space="preserve">
<path fill="#414042" d="M11.001,19.702h35.754c28.813,0,48.719,19.776,48.719,45.576v0.262c0,25.8-19.907,45.838-48.719,45.838
	H11.001V19.702z M46.755,93.174c16.502,0,27.634-11.133,27.634-27.372V65.54c0-16.24-11.132-27.634-27.634-27.634H31.17v55.268
	H46.755z"/>
<path fill="#414042" d="M95.343,91.209v-0.262c0-15.323,11.656-22.396,28.289-22.396c7.072,0,12.18,1.179,17.157,2.881v-1.179
	c0-8.25-5.108-12.834-15.061-12.834c-7.596,0-12.966,1.44-19.383,3.798l-4.977-15.192c7.727-3.405,15.323-5.632,27.241-5.632
	c10.871,0,18.729,2.881,23.706,7.858c5.238,5.238,7.596,12.965,7.596,22.395v40.73h-19.251v-7.597
	c-4.846,5.369-11.525,8.906-21.217,8.906C106.213,112.688,95.343,105.092,95.343,91.209z M141.05,86.625v-3.536
	c-3.405-1.571-7.858-2.618-12.704-2.618c-8.513,0-13.751,3.404-13.751,9.69v0.263c0,5.369,4.453,8.514,10.87,8.514
	C134.764,98.938,141.05,93.828,141.05,86.625z"/>
<path fill="#414042" d="M165.277,41.18h19.908v14.144c4.06-9.691,10.607-15.978,22.396-15.454v20.823h-1.048
	c-13.229,0-21.348,7.989-21.348,24.752v25.932h-19.908V41.18z"/>
<rect x="208.629" y="15.772" fill="#E64C3C" width="20.954" height="17.681"/>
<path fill="#414042" d="M231.809,91.209v-0.262c0-15.323,11.655-22.396,28.289-22.396c7.07,0,12.18,1.179,17.155,2.881v-1.179
	c0-8.25-5.106-12.834-15.062-12.834c-7.596,0-12.967,1.44-19.383,3.798l-4.978-15.192c7.728-3.405,15.323-5.632,27.241-5.632
	c10.869,0,18.728,2.881,23.705,7.858c5.238,5.238,7.596,12.965,7.596,22.395v40.73h-19.252v-7.597
	c-4.846,5.369-11.525,8.906-21.217,8.906C242.678,112.688,231.809,105.092,231.809,91.209z M277.516,86.625v-3.536
	c-3.406-1.571-7.857-2.618-12.705-2.618c-8.513,0-13.75,3.404-13.75,9.69v0.263c0,5.369,4.453,8.514,10.869,8.514
	C271.229,98.938,277.516,93.828,277.516,86.625z"/>
<path fill="#414042" d="M229.059,110.199V41.18h-19.906c0,0,0.265,69.383,0.099,70.195h19.769
	C229.031,110.98,229.059,110.604,229.059,110.199z"/>
</svg>
